<?xml version="1.0" standalone="no"?>
<!DOCTYPE svg PUBLIC "-//W3C//DTD SVG 20010904//EN"
 "http://www.w3.org/TR/2001/REC-SVG-20010904/DTD/svg10.dtd">
<svg version="1.0" xmlns="http://www.w3.org/2000/svg"
 width="30px" height="30px" viewBox="0 0 512.000000 512.000000"
 preserveAspectRatio="xMidYMid meet">

<g transform="translate(0.000000,512.000000) scale(0.100000,-0.100000)"
fill="#424242" stroke="none">
<path d="M2060 4679 c-581 -41 -935 -162 -1191 -406 -258 -246 -386 -615 -429
-1233 -13 -187 -13 -773 0 -960 43 -614 164 -966 419 -1221 256 -256 613 -378
1226 -419 193 -13 756 -13 950 0 618 41 991 171 1238 429 249 261 367 613 407
1216 13 193 13 757 0 950 -40 603 -158 955 -407 1216 -246 258 -615 386 -1233
429 -168 11 -811 11 -980 -1z m630 -849 c267 -42 501 -211 624 -450 63 -122
87 -211 93 -356 12 -265 -75 -476 -273 -663 -68 -64 -106 -91 -187 -131 -145
-71 -232 -92 -387 -92 -96 0 -144 5 -205 21 -320 85 -565 339 -629 653 -20 97
-21 255 -1 348 93 443 521 740 965 670z m200 -1920 c499 -36 807 -165 985
-415 65 -90 85 -140 85 -210 0 -150 -100 -243 -350 -323 -188 -60 -394 -87
-782 -103 -275 -12 -690 -2 -898 21 -335 37 -611 127 -704 231 -77 84 -83 208
-18 319 156 265 472 427 917 470 221 21 545 25 765 10z"/>
</g>
</svg>
